<?xml version="1.0" encoding="UTF-8" standalone="no"?>
<!-- Created with Inkscape (http://www.inkscape.org/) -->

<svg
   width="1364.8953"
   height="366.04419"
   viewBox="0 0 1364.8953 366.04419"
   version="1.1"
   id="svg1"
   xmlns="http://www.w3.org/2000/svg"
   xmlns:svg="http://www.w3.org/2000/svg">
  <defs
     id="defs1">
    <linearGradient
       id="swatch46">
      <stop
         style="stop-color:#edbd00;stop-opacity:1;"
         offset="0"
         id="stop46" />
    </linearGradient>
  </defs>
  <g
     id="layer1"
     style="display:inline"
     transform="translate(-277.55233,-356.97791)">
    <g
       id="text2"
       style="font-size:200px;line-height:0;font-family:'Gill Sans Ultra Bold';-inkscape-font-specification:'Gill Sans Ultra Bold, ';text-align:center;text-anchor:middle"
       aria-label="EKHOIKOS!"
       transform="matrix(1,0,0,1.3408299,26.28894,-28.260017)">
      <g
         id="g16"
         style="display:inline"
         transform="translate(-19.404234,-98.885204)">
        <path
           id="path17"
           d="m 393.24377,425.04647 c 28.00001,-3.83815 56.13535,-7.27823 84.4046,-10.25876 63.57496,-6.70075 127.86559,-10.91496 192.67052,-11.88606 h 6e-5 c 53.34832,-0.77068 106.46739,0.74227 159.20829,4.18978 46.85185,3.07717 92.53703,7.51231 137.14004,12.00648 43.78362,4.38306 86.42732,8.70485 128.03302,11.58184 v 0 c 45.5653,3.16075 90.8709,4.74174 135.7779,4.23169 53.9168,-0.57112 108.2011,-4.06858 162.6331,-9.83006 21.2287,-2.24475 42.4845,-4.84174 63.766,-7.7492 30.2642,-4.13466 74.3218,16.0674 99.9253,47.30367 18.4206,22.47308 37.2046,44.77686 56.2928,66.92084 32.4846,37.68511 30.3137,76.47839 -10.238,83.75739 -61.4337,11.02731 -123.6678,20.30034 -186.6778,27.01613 -60.4877,6.4411 -121.6623,10.34128 -183.3043,11.03821 -51.539,0.54828 -102.7047,-1.2044 -153.358,-4.74676 -46.1127,-3.23396 -90.97176,-7.7441 -134.67908,-12.14691 -44.18522,-4.42198 -87.3325,-8.64701 -129.52634,-11.37615 -47.44127,-3.08496 -94.75428,-4.45142 -141.7901,-3.75029 h -6e-5 c -57.35885,0.82005 -115.1053,4.64319 -173.03801,10.71284 -61.68253,6.46023 -123.54006,15.52204 -185.55347,26.34738 -37.15989,6.4868 -54.58958,-27.83584 -37.92713,-75.04426 9.69071,-27.45592 19.68195,-54.8834 30.02263,-82.27189 14.49463,-38.39071 52.44722,-71.41671 86.21803,-76.04591 z"
           style="font-size:200px;line-height:0;font-family:'Gill Sans Ultra Bold';-inkscape-font-specification:'Gill Sans Ultra Bold, ';text-align:center;text-anchor:middle;display:inline;fill:#876eae;fill-opacity:1;stroke:none;stroke-width:5.18161;stroke-dasharray:none;stroke-opacity:1" />
        <path
           id="rect16"
           d="m 393.24377,408.53985 c 28.00001,-3.83815 56.13535,-7.27823 84.4046,-10.25876 63.57496,-6.70075 127.86559,-10.91496 192.67052,-11.88606 h 6e-5 c 53.34832,-0.77068 106.46739,0.74227 159.20829,4.18978 46.85185,3.07717 92.53703,7.51231 137.14004,12.00648 43.78362,4.38306 86.42732,8.70485 128.03302,11.58184 v 0 c 45.5653,3.16075 90.8709,4.74174 135.7779,4.23169 53.9168,-0.57112 108.2011,-4.06858 162.6331,-9.83006 21.2287,-2.24475 42.4845,-4.84174 63.766,-7.7492 30.2642,-4.13466 74.3218,16.0674 99.9253,47.30367 18.4206,22.47308 37.2046,44.77686 56.2928,66.92084 32.4846,37.68511 30.3137,76.47839 -10.238,83.75739 -61.4337,11.02731 -123.6678,20.30034 -186.6778,27.01613 -60.4877,6.4411 -121.6623,10.34128 -183.3043,11.03821 -51.539,0.54828 -102.7047,-1.2044 -153.358,-4.74676 -46.1127,-3.23396 -90.97176,-7.7441 -134.67908,-12.14691 -44.18522,-4.42198 -87.3325,-8.64701 -129.52634,-11.37615 -47.44127,-3.08496 -94.75428,-4.45142 -141.7901,-3.75029 h -6e-5 c -57.35885,0.82005 -115.1053,4.64319 -173.03801,10.71284 -61.68253,6.46023 -123.54006,15.52204 -185.55347,26.34738 -37.15989,6.4868 -54.58958,-27.83584 -37.92713,-75.04426 9.69071,-27.45592 19.68195,-54.8834 30.02263,-82.27189 14.49463,-38.39071 52.44722,-71.41671 86.21803,-76.04591 z"
           style="font-size:200px;line-height:0;font-family:'Gill Sans Ultra Bold';-inkscape-font-specification:'Gill Sans Ultra Bold, ';text-align:center;text-anchor:middle;display:inline;fill:#b5a2d2;fill-opacity:1;stroke:none;stroke-width:5.18161;stroke-dasharray:none;stroke-opacity:1" />
        <path
           d="m 340.24382,625.46851 c -4.11753,13.20713 -8.13593,26.42267 -12.06054,39.64578 -35.34892,4.61014 -70.70411,9.94644 -106.06143,15.83974 16.92766,-48.76176 34.99304,-97.4305 54.56633,-145.93523 32.37961,-4.57587 64.93589,-8.63585 97.66613,-12.06908 -3.77951,10.65494 -7.48494,21.31685 -11.11912,31.98528 -15.57339,1.7258 -31.11557,3.59378 -46.62623,5.59143 -2.03458,5.60343 -4.04964,11.20879 -6.04567,16.816 10.90033,-1.43791 21.81401,-2.81204 32.74093,-4.11795 -4.04059,11.87296 -7.99501,23.75388 -11.86734,35.6421 -11.14327,1.40377 -22.27793,2.87821 -33.40386,4.41837 -2.11875,6.2058 -4.21551,12.41363 -6.29092,18.62339 16.15489,-2.28937 32.32226,-4.44112 48.50172,-6.43983 z M 443.24147,516.74305 c -4.55488,14.11448 -8.98073,28.24246 -13.28275,42.38197 9.43304,-1.51234 17.67227,-6.26041 24.7613,-14.18965 6.9729,-7.79931 12.35791,-17.87114 16.14183,-30.07172 17.96806,-1.10431 35.98184,-1.9779 54.03585,-2.60151 -4.21888,14.74454 -9.65024,27.3673 -16.27263,37.65468 -6.77107,10.51836 -15.2749,19.57937 -25.49515,27.14201 13.2625,13.59915 16.19765,37.16646 9.68398,72.45693 -20.27951,1.11869 -40.57902,2.56647 -60.88857,4.30836 7.96206,-36.72957 3.62874,-53.93983 -14.28641,-53.01484 -4.48007,15.61057 -8.81584,31.2328 -13.01429,46.86407 -0.79756,2.96663 -1.59028,5.9336 -2.37822,8.90091 -18.82656,1.87165 -37.65572,3.98295 -56.48685,6.3083 13.62326,-47.12508 28.44758,-94.15599 44.69994,-141.05747 0.0613,-0.17679 0.12268,-0.35357 0.18404,-0.53036 17.48246,-1.71765 35.01684,-3.24094 52.59793,-4.55168 z m 120.24517,130.25982 c -18.74947,0.28348 -37.52612,0.88494 -56.32199,1.77648 10.44504,-45.77519 21.96784,-91.46286 34.67031,-137.02801 7.41594,-0.19095 14.83836,-0.33882 22.26689,-0.44227 10.37972,-0.14047 20.7521,-0.19098 31.11576,-0.15455 -3.85924,15.1026 -7.61231,30.21728 -11.25701,45.34333 9.24481,-0.025 18.48715,0.0224 27.72593,0.13985 3.46543,-15.07347 7.02296,-30.13721 10.67091,-45.19066 17.76336,0.31937 35.49752,0.88724 53.19552,1.68839 -9.60927,44.84208 -18.66476,89.7486 -27.14254,134.71127 -18.79425,-0.64588 -37.57114,-0.99876 -56.32007,-1.03546 3.74624,-18.30793 7.63261,-36.60319 11.65613,-54.8848 -9.37244,-0.0801 -18.74466,-0.0856 -28.11547,-0.0139 -3.29514,14.3624 -6.49126,28.73454 -9.58649,43.11582 -0.86003,3.99089 -1.71264,7.9824 -2.55788,11.97451 z m 169.85056,8.22179 c -13.95363,-1.06915 -25.4094,-6.33617 -34.53185,-15.72683 0,0 0,-10e-6 0,-10e-6 -2.90025,-2.98711 -5.56808,-6.3928 -8.00235,-10.21351 -9.71417,-15.411 -12.79719,-33.09644 -8.98108,-52.79138 3.41976,-17.64928 11.50876,-31.98453 24.39703,-43.15716 0,0 0,0 0,0 0.88734,-0.76933 1.79698,-1.5234 2.72888,-2.26227 14.12965,-11.20265 29.67767,-16.02896 46.46888,-14.6914 16.84857,1.34212 30.18874,8.4618 40.21729,21.4705 10.35703,13.30941 14.56286,29.3228 12.50864,48.22868 -2.14925,19.78078 -10.3923,36.56872 -24.82147,50.21436 -14.79309,13.99032 -31.54478,20.34185 -49.98397,18.92902 z m 14.49831,-91.90469 c -3.45653,-0.27197 -6.54624,0.80458 -9.26722,3.2366 -2.72732,2.38918 -4.42292,5.56969 -5.09027,9.55417 -0.6729,4.01764 -0.0727,7.47846 1.79742,10.36882 1.89098,2.84807 4.59635,4.41208 8.11751,4.68702 3.57542,0.27917 6.73312,-0.8269 9.47177,-3.31268 2.7322,-2.53083 4.40218,-5.81175 5.0091,-9.83268 0.6018,-3.98712 -0.0486,-7.35029 -1.95065,-10.10112 -1.88275,-2.79221 -4.57785,-4.32397 -8.08766,-4.60013 z m 73.60944,97.06006 c 4.02302,-45.07395 8.04746,-90.1475 12.07143,-135.22075 16.88483,1.57979 33.62594,3.15011 50.23037,4.62168 -1.25515,45.3159 -2.40739,90.63664 -3.42402,135.96375 -19.80481,-1.70398 -39.42716,-3.53763 -58.87778,-5.36468 z M 955.2951,535.29847 c 1.09464,13.82836 2.2401,27.65673 3.4375,41.48476 8.85264,-0.21539 15.16114,-4.02564 18.86008,-11.26268 3.64638,-7.13422 4.61846,-16.78352 3.14122,-28.82333 16.51249,0.7941 32.9957,1.36027 49.4421,1.67202 3.087,14.66996 4.0039,27.05218 2.4479,37.03615 -1.588,10.18942 -5.7526,18.75231 -12.6545,25.55669 19.5789,14.67157 34.8213,38.60209 45.8862,73.34067 -22.0722,0.0801 -44.0893,-0.2765 -66.03739,-1.0217 -7.11306,-36.22558 -19.21219,-54.08181 -37.40696,-55.7639 1.70577,18.13618 3.50277,36.2712 5.39354,54.40431 -9.56447,-0.48628 -19.11444,-1.04235 -28.64876,-1.66421 -10.64832,-0.69589 -21.24287,-1.46516 -31.78523,-2.28776 -0.61692,-45.42668 -0.97244,-90.8447 -1.1256,-136.25639 14.43701,1.1945 28.77159,2.28217 43.00848,3.20302 2.01417,0.13059 4.02799,0.25806 6.04142,0.38235 z M 1144.96,674.72948 c -19.7786,0.97751 -39.3595,-6.18432 -57.4993,-21.11921 -4.1459,-3.4362 -7.9245,-7.04096 -11.3422,-10.80384 -11.0723,-12.18533 -18.327,-26.01109 -22.1138,-41.19376 -4.7438,-19.02025 -2.603,-34.5525 5.4332,-46.84859 4.1441,-6.34057 9.293,-10.99783 15.481,-14.03663 5.587,-2.7366 12.0308,-4.15895 19.4028,-4.32736 15.6022,-0.35643 30.9704,4.96807 46.9792,16.21893 16.466,11.49716 29.2697,26.17456 38.1152,44.61545 9.2408,19.26492 11.328,36.64332 5.0813,52.01869 -6.3889,15.72653 -19.6715,24.49449 -39.5374,25.47632 z m -34.4692,-91.38706 c -3.3683,0.10817 -5.7189,1.48353 -7.0667,4.15155 -1.3735,2.62385 -1.4045,5.9242 -0.049,9.90889 1.3669,4.01939 3.6765,7.36149 6.9473,10.0026 3.2679,2.59606 6.6903,3.83439 10.2273,3.70188 3.5926,-0.13458 6.0515,-1.59303 7.3631,-4.34761 1.2827,-2.7998 1.1335,-6.20068 -0.4027,-10.19589 -1.5229,-3.96085 -3.893,-7.16257 -7.0959,-9.62854 -3.2071,-2.50939 -6.5021,-3.70274 -9.9231,-3.59288 0,0 10e-5,0 10e-5,0 z m 153.8553,-51.38781 c 3.968,12.73038 7.982,25.45185 12.0409,38.16443 -16.2622,-10.64033 -29.3853,-15.36955 -40.1366,-14.26296 -5.9613,0.61357 -7.5952,3.23935 -4.8048,7.96096 0.8729,1.47696 2.7102,2.89217 5.5229,4.23563 2.8519,1.33264 9.4303,3.26349 19.7115,5.65038 11.4784,2.69982 20.7265,5.22798 27.7774,7.70371 7.0964,2.42518 13.6086,5.8713 19.5596,10.37927 6.0153,4.55677 11.4498,10.13068 16.3012,16.7674 10.3955,14.22091 13.4199,26.07592 8.4001,35.41686 -5.1381,9.4162 -18.4828,15.71172 -39.954,18.3054 -16.7144,2.01907 -32.9297,1.88912 -48.427,-0.34631 -6.8392,-0.98546 -13.5359,-2.38185 -20.0722,-4.18423 -3.6695,-16.02497 -7.2842,-32.05802 -10.8432,-48.09891 7.4494,6.24212 15.2774,11.06874 23.4165,14.42923 1.1382,0.46599 2.2518,0.89403 3.3403,1.28415 6.8103,2.44179 12.6396,3.40117 17.4025,2.89051 2.7068,-0.29022 4.504,-1.28813 5.387,-2.98227 0.9365,-1.69518 0.742,-3.60965 -0.5668,-5.74102 -1.231,-2.00433 -3.2857,-3.81469 -6.1544,-5.44075 -2.8106,-1.63037 -8.8258,-3.62043 -18.0418,-6.08112 -1e-4,0 -0.052,-0.0139 -0.052,-0.0139 -8.2611,-2.16985 -15.2623,-4.40676 -21.0091,-6.6654 -5.7488,-2.30449 -11.4625,-5.77507 -17.0917,-10.38587 -5.5721,-4.56398 -10.1183,-10.46227 -13.6549,-17.6322 -6.697,-13.57701 -6.8806,-23.92575 -1.1486,-31.16943 5.674,-7.17027 17.0348,-11.34955 34.2816,-12.96923 3.1978,-0.30031 6.4104,-0.50172 9.6411,-0.60408 12.7203,-0.40305 25.7181,0.72429 39.1747,3.38978 z m 89.384,75.48699 c -32.638,-21.65788 -52.9928,-39.68565 -62.7251,-53.37526 -6.4876,-9.12568 -9.2884,-16.83524 -8.6357,-23.12671 0.6451,-6.21854 4.5053,-9.73629 11.592,-10.67236 6.8544,-0.90538 14.5919,1.00228 23.4008,5.74445 8.9728,4.79715 16.9568,11.43872 23.963,20.03927 12.2995,15.09858 20.9192,34.72142 25.3278,59.41528 5.5403,0.98567 10.8949,2.98493 16.0926,6.01645 5.2937,3.04587 9.8295,6.75842 13.6,11.16375 4.9177,5.74552 7.1964,11.04853 6.7373,15.91389 -0.4048,4.89695 -3.4819,7.84311 -9.2346,8.77627 -5.7502,0.93277 -12.4753,-0.4247 -20.0671,-4.06692 -7.5237,-3.60949 -13.5597,-8.3696 -18.1267,-14.22343 -3.4558,-4.42934 -5.3379,-8.56391 -5.6928,-12.39875 -0.397,-3.86419 0.8663,-6.92501 3.7685,-9.20593 z"
           id="text5"
           style="font-size:172.72px;line-height:0;font-family:'Gill Sans Ultra Bold';-inkscape-font-specification:'Gill Sans Ultra Bold, ';text-align:start;text-anchor:start;display:inline;fill:#0a0c04;fill-opacity:1;stroke-width:5.18161"
           aria-label="EKHOIKOS!"
           transform="matrix(1.0964712,0,0,1.174275,52.158677,-189.38595)" />
      </g>
    </g>
  </g>
  <g
     id="layer2"
     style="display:none"
     transform="translate(-277.55233,-356.97791)">
    <g
       id="g18"
       transform="matrix(0.6018446,0.16232293,-0.16232293,0.6018446,887.63379,-217.57357)"
       style="display:inline;stroke:#1c1008;stroke-width:11.2645;stroke-dasharray:none;stroke-opacity:1">
      <rect
         style="fill:#28170b;stroke:#1c1008;stroke-width:11.2645;stroke-dasharray:none;stroke-opacity:1"
         id="rect17"
         width="35.150791"
         height="368.30359"
         x="890.16431"
         y="423.68689"
         ry="16.577265"
         transform="rotate(-5.0220103)" />
      <rect
         style="fill:#28170b;stroke:#1c1008;stroke-width:11.2645;stroke-dasharray:none;stroke-opacity:1"
         id="rect17-1"
         width="31.928965"
         height="334.5459"
         x="853.66583"
         y="587.81592"
         ry="15.057837"
         transform="rotate(-17.356142)" />
      <rect
         style="fill:#28170b;stroke:#1c1008;stroke-width:11.2645;stroke-dasharray:none;stroke-opacity:1"
         id="rect17-8"
         width="33.328773"
         height="349.21283"
         x="828.08502"
         y="104.50449"
         ry="15.717994"
         transform="rotate(14.259698)" />
      <g
         id="g17"
         style="stroke:#442613;stroke-width:11.2645;stroke-dasharray:none;stroke-opacity:1">
        <path
           id="ellipse15"
           style="fill:#784421;stroke:#442613;stroke-width:11.2645;stroke-dasharray:none;stroke-opacity:1"
           d="M 907.40234,270.31641 A 152.29143,55.840187 0 0 0 768.4375,303.31445 h -13.32617 v 22.84375 a 152.29143,55.840187 0 0 0 152.29101,55.83985 152.29143,55.840187 0 0 0 152.29296,-55.83985 152.29143,55.840187 0 0 0 0,-0.0254 v -22.81836 h -13.3281 A 152.29143,55.840187 0 0 0 907.40234,270.31641 Z" />
        <ellipse
           style="fill:#a05a2c;stroke:#442613;stroke-width:11.2645;stroke-dasharray:none;stroke-opacity:1"
           id="path15"
           cx="907.40308"
           cy="303.31375"
           rx="152.29143"
           ry="55.840187" />
      </g>
    </g>
  </g>
</svg>
